<svg version="1.1" id="Layer_1" xmlns="http://www.w3.org/2000/svg" xmlns:xlink="http://www.w3.org/1999/xlink" x="0px" y="0px" width="100%" viewBox="0 0 2048 2048" enable-background="new 0 0 2048 2048" xml:space="preserve">

<path fill="#202020" opacity="1.000000" stroke="none" d="
M990.146118,1020.000000 
	C990.145752,1067.130127 990.145752,1113.760254 990.145752,1160.655762 
	C966.744446,1160.655762 943.658875,1160.655762 920.002380,1160.655762 
	C920.002380,1158.518311 920.002441,1156.573242 920.002380,1154.628174 
	C919.999817,1103.969238 920.128418,1053.309692 919.855286,1002.652222 
	C919.813660,994.926453 918.828674,986.944580 916.679749,979.546021 
	C912.300354,964.467529 901.584106,955.499207 886.216431,952.572876 
	C876.439514,950.711182 866.587952,951.084534 857.121826,954.529236 
	C838.539246,961.291382 829.008850,975.005615 827.255615,994.386292 
	C826.851379,998.854675 826.963867,1003.376221 826.960876,1007.873413 
	C826.928894,1056.865845 826.921326,1105.858276 826.907104,1154.850708 
	C826.906616,1156.643555 826.907043,1158.436401 826.907043,1160.566162 
	C803.537842,1160.566162 780.624451,1160.566162 757.024292,1160.566162 
	C757.024292,1158.503906 757.025269,1156.406860 757.024170,1154.309692 
	C756.996399,1103.484131 757.128479,1052.657593 756.775635,1001.834290 
	C756.719910,993.805847 755.339905,985.533142 753.033630,977.834229 
	C749.707947,966.731995 741.751709,959.140076 730.901245,954.899658 
	C716.226257,949.164551 691.503845,949.536499 677.031616,965.237610 
	C668.804688,974.163147 664.784851,985.036499 664.089233,996.991028 
	C663.557434,1006.128540 663.746399,1015.312378 663.743530,1024.475586 
	C663.730103,1068.135498 663.760498,1111.795288 663.775208,1155.455200 
	C663.775696,1156.943970 663.775269,1158.432739 663.775269,1160.412109 
	C640.321777,1160.412109 617.116638,1160.412109 593.640381,1160.412109 
	C593.640381,1073.407227 593.640381,986.325928 593.640381,898.800049 
	C615.828369,898.800049 637.879761,898.800049 660.660461,898.800049 
	C660.660461,912.951904 660.660461,927.101868 660.660461,941.251831 
	C661.227539,941.468567 661.794678,941.685364 662.361755,941.902161 
	C664.020508,939.256775 665.739441,936.647034 667.327942,933.960266 
	C676.176880,918.993408 688.338318,907.379272 704.570923,901.288147 
	C733.612000,890.390747 762.144165,891.567810 788.757446,908.763855 
	C800.384094,916.276306 808.064880,927.403931 813.432739,940.126587 
	C813.936707,941.320984 815.143127,942.218872 816.023438,943.254395 
	C816.976135,942.268250 818.214600,941.435730 818.839600,940.273315 
	C834.173828,911.754089 858.879578,897.895508 890.324341,895.221680 
	C911.408752,893.428772 931.915894,895.771545 950.679932,906.804871 
	C969.032898,917.596436 980.982422,933.352600 985.701233,953.953979 
	C988.209351,964.903687 989.249634,976.274475 989.994507,987.518677 
	C990.697815,998.135864 990.146179,1008.836243 990.146118,1020.000000 
z" data-index="1" style="opacity: 1;"></path>
<path fill="#202020" opacity="1.000000" stroke="none" d="
M1105.049561,925.991333 
	C1105.050781,930.936096 1105.050781,935.382996 1105.050781,939.829895 
	C1105.421021,940.031555 1105.791382,940.233215 1106.161621,940.434875 
	C1107.252808,939.289856 1108.566406,938.286438 1109.400024,936.977478 
	C1115.814209,926.904602 1123.468872,917.968018 1133.244141,911.020874 
	C1154.708496,895.766541 1178.946777,892.361877 1204.280518,895.632080 
	C1245.791748,900.990662 1272.890137,925.447327 1287.045288,963.457031 
	C1304.218384,1009.570984 1303.701050,1056.442261 1284.630127,1102.003052 
	C1259.799683,1161.323486 1197.761475,1175.495728 1153.221313,1158.964478 
	C1135.370972,1152.339111 1121.648193,1140.785767 1111.792847,1124.534546 
	C1110.920776,1123.096680 1109.613525,1121.922729 1108.508423,1120.626221 
	C1108.082642,1120.861572 1107.656738,1121.097046 1107.230957,1121.332397 
	C1107.230957,1165.703857 1107.230957,1210.075317 1107.230957,1254.700928 
	C1083.670288,1254.700928 1060.574829,1254.700928 1037.162842,1254.700928 
	C1037.162842,1136.130249 1037.162842,1017.736450 1037.162842,898.839722 
	C1059.530396,898.839722 1081.896362,898.839722 1105.048340,898.839722 
	C1105.048340,907.633728 1105.048340,916.563538 1105.049561,925.991333 
M1111.217407,992.823059 
	C1104.169678,1017.823486 1103.914429,1042.846924 1112.088745,1067.565796 
	C1120.454102,1092.861938 1140.517212,1107.758179 1165.518433,1108.163208 
	C1192.091309,1108.593872 1212.391602,1095.311401 1221.103027,1069.497803 
	C1230.423706,1041.879272 1230.405029,1013.675293 1219.699097,986.332581 
	C1213.153320,969.615051 1201.054077,957.544739 1183.103394,952.947998 
	C1151.030518,944.734924 1122.809326,960.317932 1111.217407,992.823059 
z" data-index="2"></path>
<path fill="#202020" opacity="1.000000" stroke="none" d="
M327.000305,898.354980 
	C341.165955,898.330017 354.834045,898.437927 368.495605,898.188477 
	C371.993561,898.124695 373.322144,899.276917 374.353302,902.542786 
	C393.456940,963.049561 412.697083,1023.513245 431.909790,1083.985596 
	C432.212341,1084.937866 432.330627,1086.033813 432.895386,1086.795532 
	C433.580109,1087.719360 434.561127,1088.706909 435.590149,1088.965576 
	C436.063995,1089.084473 437.309601,1087.645630 437.599548,1086.722900 
	C438.896912,1082.593872 439.878265,1078.366333 441.148804,1074.228027 
	C458.746948,1016.908630 476.385406,959.601562 493.954590,902.273254 
	C494.713654,899.796509 495.502502,898.347168 498.588531,898.362000 
	C520.752258,898.468567 542.916992,898.361694 565.081421,898.341980 
	C565.696777,898.341492 566.312256,898.558838 567.491394,898.780518 
	C564.832520,906.377136 562.351807,913.727356 559.695679,921.013611 
	C527.870850,1008.314636 496.006287,1095.601074 464.185791,1182.903687 
	C456.365387,1204.359741 445.527863,1223.714111 427.157959,1238.123413 
	C410.931091,1250.851685 392.219727,1256.394287 372.005585,1257.729248 
	C353.891113,1258.925415 336.125305,1256.769287 317.958191,1251.831665 
	C321.813416,1233.136841 325.632355,1214.617920 329.500854,1195.858643 
	C335.679169,1196.994141 341.344452,1198.244385 347.074036,1199.018066 
	C351.183258,1199.573120 355.387634,1199.775757 359.533844,1199.643311 
	C377.319458,1199.075317 388.509674,1190.467529 394.314117,1173.329102 
	C396.492279,1166.897705 396.939362,1160.998291 394.337738,1154.152466 
	C362.210968,1069.615479 330.445862,984.941101 298.593567,900.299866 
	C298.480957,900.000610 298.456360,899.668213 298.184052,898.355042 
	C307.742340,898.355042 317.121307,898.355042 327.000305,898.354980 
z" data-index="3"></path>
<path fill="#201F20" opacity="1.000000" stroke="none" d="
M1913.148560,1141.342163 
	C1907.393311,1157.202637 1902.021729,1172.794556 1896.089844,1188.170166 
	C1886.619507,1212.717651 1872.490112,1233.767822 1848.596802,1246.490723 
	C1828.049438,1257.431885 1805.733643,1259.486084 1782.979370,1257.350952 
	C1772.948975,1256.409912 1763.032227,1254.256836 1752.322144,1252.534790 
	C1756.184692,1233.042603 1759.830200,1214.645996 1763.599731,1195.623291 
	C1767.049561,1196.341309 1770.051147,1197.261963 1773.111938,1197.545898 
	C1781.197266,1198.296021 1789.366455,1199.672241 1797.396484,1199.156006 
	C1811.616699,1198.241699 1821.507324,1190.377808 1826.963135,1177.192505 
	C1828.486572,1173.510620 1829.836548,1169.708374 1830.744019,1165.838867 
	C1831.269897,1163.596558 1831.394531,1160.873901 1830.615601,1158.768555 
	C1814.323364,1114.732178 1797.877441,1070.752563 1781.458252,1026.763062 
	C1765.624023,984.340637 1749.785889,941.919678 1733.687256,898.796082 
	C1735.425537,898.659424 1736.967651,898.437439 1738.510498,898.432068 
	C1760.169922,898.357056 1781.832031,898.471375 1803.486694,898.123230 
	C1807.796509,898.053955 1808.317871,900.409607 1809.242798,903.320618 
	C1824.166138,950.289917 1839.160645,997.236694 1854.041016,1044.219604 
	C1858.262451,1057.547974 1862.111694,1070.994141 1866.300659,1084.333252 
	C1866.816528,1085.975952 1868.381348,1087.289307 1869.459961,1088.755249 
	C1870.491943,1087.264160 1871.980469,1085.913818 1872.489990,1084.261597 
	C1891.185181,1023.641418 1909.806152,962.998352 1928.349121,902.331482 
	C1929.125122,899.792480 1929.901733,898.392273 1932.938477,898.408997 
	C1955.430054,898.532715 1977.922363,898.478394 2000.414551,898.503662 
	C2000.850952,898.504150 2001.287109,898.793457 2002.331543,899.163513 
	C1972.616089,979.854492 1942.948486,1060.415527 1913.148560,1141.342163 
z" data-index="4"></path>
<path fill="#1F1F1F" opacity="1.000000" stroke="none" d="
M208.400726,957.588257 
	C201.889297,951.456116 194.405502,947.835510 186.077515,946.331055 
	C172.472290,943.873169 158.848282,943.958008 145.564362,948.267944 
	C136.947525,951.063721 130.134521,955.989197 127.707626,965.445557 
	C124.748924,976.974060 128.158768,986.145142 139.126343,990.499268 
	C149.567719,994.644531 160.604248,997.517517 171.592407,1000.009399 
	C191.877304,1004.609619 212.502655,1007.809021 232.618484,1013.013245 
	C243.094101,1015.723389 253.485352,1020.338379 262.691101,1026.061279 
	C284.183624,1039.422607 291.086761,1060.331909 289.501434,1084.604004 
	C287.369812,1117.240479 269.522095,1138.886841 240.732483,1152.115479 
	C215.311081,1163.796631 188.119568,1165.939331 160.556030,1165.169312 
	C137.816696,1164.534058 115.770248,1160.707397 95.459389,1149.950073 
	C69.687958,1136.300537 54.075832,1115.116943 49.015511,1085.502197 
	C71.868896,1082.812134 94.436264,1080.155762 117.431343,1077.449097 
	C118.071220,1079.665039 118.619148,1082.041626 119.438400,1084.320557 
	C124.106071,1097.305054 133.500488,1105.720093 146.206604,1110.062012 
	C163.055191,1115.819214 180.334702,1115.978027 197.289536,1110.609375 
	C202.652588,1108.911255 207.968704,1105.634277 212.111801,1101.791870 
	C223.014740,1091.680054 220.662872,1074.997681 207.355194,1068.493652 
	C200.412582,1065.100464 192.764404,1062.845093 185.199890,1061.087402 
	C162.341324,1055.776489 139.307449,1051.214966 116.474434,1045.802246 
	C109.254425,1044.090698 102.128586,1041.247925 95.512421,1037.847412 
	C63.060349,1021.167786 53.086712,995.217468 58.695236,960.880310 
	C62.738613,936.125488 78.872162,920.263428 100.160217,909.054260 
	C117.866936,899.730774 137.088562,895.791565 156.891495,894.638123 
	C180.844208,893.242920 204.589142,894.455688 227.330017,903.033569 
	C255.492249,913.656250 275.507263,932.184204 283.230835,962.206421 
	C283.760040,964.263611 284.090179,966.372009 284.627899,969.023499 
	C262.664276,972.069153 241.129562,975.055298 221.007416,977.845581 
	C216.547775,970.611328 212.608170,964.220703 208.400726,957.588257 
z" data-index="5"></path>
<path fill="#202020" opacity="1.000000" stroke="none" d="
M1590.968750,955.207031 
	C1591.535889,951.398926 1589.758545,950.974854 1586.928345,951.007324 
	C1575.295776,951.140808 1563.661011,951.063049 1551.731445,951.063049 
	C1551.731445,933.487061 1551.731445,916.221680 1551.731445,898.508789 
	C1564.741333,898.508789 1577.656738,898.508789 1591.165039,898.508789 
	C1591.165039,892.821106 1591.096802,887.558960 1591.178467,882.299011 
	C1591.378418,869.435791 1592.151367,856.634155 1596.689087,844.411987 
	C1605.572754,820.484009 1623.266235,805.941833 1647.235718,799.353699 
	C1672.396729,792.437988 1697.714478,794.043335 1722.706421,801.240051 
	C1723.966797,801.602905 1725.156128,802.212402 1727.257446,803.062805 
	C1724.227417,820.306641 1721.192505,837.577393 1718.135864,854.972656 
	C1711.545898,853.787170 1705.404297,852.347351 1699.179688,851.671143 
	C1694.417725,851.153748 1689.502563,851.169983 1684.739868,851.702576 
	C1671.151611,853.221863 1663.048828,860.821411 1661.525024,874.328613 
	C1660.658081,882.014221 1661.368286,889.877747 1661.368286,898.248657 
	C1680.177856,898.248657 1699.070435,898.248657 1718.290649,898.248657 
	C1718.290649,916.060547 1718.290649,933.286377 1718.290649,951.142456 
	C1699.055420,951.142456 1680.144653,951.142456 1660.935059,951.142456 
	C1660.935059,1021.205811 1660.935059,1090.640137 1660.935059,1160.500244 
	C1637.597534,1160.500244 1614.566650,1160.500244 1590.969482,1160.500244 
	C1590.969482,1092.211182 1590.969482,1023.947754 1590.968750,955.207031 
z" data-index="6"></path>
<path fill="#202020" opacity="1.000000" stroke="none" d="
M1336.063232,1010.000000 
	C1336.062866,943.381348 1336.062866,877.262695 1336.062866,810.681763 
	C1359.386719,810.681763 1382.576660,810.681763 1406.106079,810.681763 
	C1406.106079,927.158569 1406.106079,1043.686890 1406.106079,1160.568115 
	C1382.911743,1160.568115 1359.838257,1160.568115 1336.063721,1160.568115 
	C1336.063721,1110.601196 1336.063721,1060.550537 1336.063232,1010.000000 
z" data-index="7"></path>
<path fill="#202021" opacity="1.000000" stroke="none" d="
M1453.267822,1030.000000 
	C1453.267822,986.037598 1453.267822,942.575195 1453.267822,898.716064 
	C1476.699463,898.716064 1499.763184,898.716064 1523.227539,898.716064 
	C1523.227539,986.046021 1523.227539,1073.270874 1523.227539,1160.711426 
	C1500.023315,1160.711426 1477.064331,1160.711426 1453.267822,1160.711426 
	C1453.267822,1117.315063 1453.267822,1073.907471 1453.267822,1030.000000 
z" data-index="8"></path>
<path fill="#3494EC" opacity="1.000000" stroke="none" d="
M1517.299316,805.695862 
	C1533.876465,827.095581 1529.376831,853.606689 1507.309204,866.100647 
	C1493.789551,873.755066 1475.013550,872.170715 1463.159912,862.375000 
	C1450.291382,851.740540 1445.583496,834.955139 1451.015503,819.075073 
	C1456.185913,803.959229 1469.848999,793.887756 1486.178955,793.237732 
	C1498.251465,792.757202 1508.876831,796.039856 1517.299316,805.695862 
z" data-index="9"></path>

</svg>